<svg width="113" height="66" viewBox="0 0 113 66" fill="none" xmlns="http://www.w3.org/2000/svg">
<mask id="path-1-outside-1_259_40" maskUnits="userSpaceOnUse" x="0" y="48" width="113" height="18" fill="black">
<rect fill="white" y="48" width="113" height="18"/>
<path d="M22.6735 65H18.6235L16.7635 61.61H6.95348L5.15348 65H1.55348L10.3135 49.52H13.7935L22.6735 65ZM15.2635 58.82L11.9335 52.52L8.48348 58.82H15.2635ZM43.028 65H37.868L31.628 59.15H28.208V65H24.668V49.52H37.928C40.248 49.52 41.408 50.52 41.408 52.52V56.15C41.408 57.65 40.808 58.58 39.608 58.94C39.148 59.08 37.908 59.15 35.888 59.15L43.028 65ZM37.928 55.28V53.42C37.928 52.9 37.778 52.56 37.478 52.4C37.258 52.26 36.868 52.19 36.308 52.19H28.208V56.51H36.308C36.868 56.51 37.258 56.44 37.478 56.3C37.778 56.14 37.928 55.8 37.928 55.28ZM49.3207 65H45.7207V49.52H49.3207V65ZM71.0344 61.34C71.0344 62.78 70.7544 63.75 70.1944 64.25C69.6344 64.75 68.6244 65 67.1644 65H57.5944C56.0144 65 54.9744 64.72 54.4744 64.16C53.9744 63.6 53.7244 62.52 53.7244 60.92L56.9044 60.26V62.09H67.8544V58.55H58.1944C56.7344 58.55 55.7244 58.3 55.1644 57.8C54.6244 57.3 54.3544 56.33 54.3544 54.89V53.18C54.3544 51.74 54.6244 50.77 55.1644 50.27C55.7244 49.77 56.7344 49.52 58.1944 49.52H66.9844C68.4644 49.52 69.4744 49.78 70.0144 50.3C70.5544 50.8 70.8244 51.78 70.8244 53.24L67.6444 53.99V52.22H57.5044V55.55H67.1644C68.6244 55.55 69.6344 55.8 70.1944 56.3C70.7544 56.8 71.0344 57.77 71.0344 59.21V61.34ZM91.4822 65H75.4922V49.52H91.3322V52.16H79.0922V55.61H86.2322V58.25H79.0922V62.09H91.4822V65ZM111.939 61.34C111.939 62.78 111.659 63.75 111.099 64.25C110.539 64.75 109.529 65 108.069 65H98.4987C96.9187 65 95.8787 64.72 95.3787 64.16C94.8787 63.6 94.6287 62.52 94.6287 60.92L97.8087 60.26V62.09H108.759V58.55H99.0987C97.6387 58.55 96.6287 58.3 96.0687 57.8C95.5287 57.3 95.2587 56.33 95.2587 54.89V53.18C95.2587 51.74 95.5287 50.77 96.0687 50.27C96.6287 49.77 97.6387 49.52 99.0987 49.52H107.889C109.369 49.52 110.379 49.78 110.919 50.3C111.459 50.8 111.729 51.78 111.729 53.24L108.549 53.99V52.22H98.4087V55.55H108.069C109.529 55.55 110.539 55.8 111.099 56.3C111.659 56.8 111.939 57.77 111.939 59.21V61.34Z"/>
</mask>
<path d="M22.6735 65H18.6235L16.7635 61.61H6.95348L5.15348 65H1.55348L10.3135 49.52H13.7935L22.6735 65ZM15.2635 58.82L11.9335 52.52L8.48348 58.82H15.2635ZM43.028 65H37.868L31.628 59.15H28.208V65H24.668V49.52H37.928C40.248 49.52 41.408 50.52 41.408 52.52V56.15C41.408 57.65 40.808 58.58 39.608 58.94C39.148 59.08 37.908 59.15 35.888 59.15L43.028 65ZM37.928 55.28V53.42C37.928 52.9 37.778 52.56 37.478 52.4C37.258 52.26 36.868 52.19 36.308 52.19H28.208V56.51H36.308C36.868 56.51 37.258 56.44 37.478 56.3C37.778 56.14 37.928 55.8 37.928 55.28ZM49.3207 65H45.7207V49.52H49.3207V65ZM71.0344 61.34C71.0344 62.78 70.7544 63.75 70.1944 64.25C69.6344 64.75 68.6244 65 67.1644 65H57.5944C56.0144 65 54.9744 64.72 54.4744 64.16C53.9744 63.6 53.7244 62.52 53.7244 60.92L56.9044 60.26V62.09H67.8544V58.55H58.1944C56.7344 58.55 55.7244 58.3 55.1644 57.8C54.6244 57.3 54.3544 56.33 54.3544 54.89V53.18C54.3544 51.74 54.6244 50.77 55.1644 50.27C55.7244 49.77 56.7344 49.52 58.1944 49.52H66.9844C68.4644 49.52 69.4744 49.78 70.0144 50.3C70.5544 50.8 70.8244 51.78 70.8244 53.24L67.6444 53.99V52.22H57.5044V55.55H67.1644C68.6244 55.55 69.6344 55.8 70.1944 56.3C70.7544 56.8 71.0344 57.77 71.0344 59.21V61.34ZM91.4822 65H75.4922V49.52H91.3322V52.16H79.0922V55.61H86.2322V58.25H79.0922V62.09H91.4822V65ZM111.939 61.34C111.939 62.78 111.659 63.75 111.099 64.25C110.539 64.75 109.529 65 108.069 65H98.4987C96.9187 65 95.8787 64.72 95.3787 64.16C94.8787 63.6 94.6287 62.52 94.6287 60.92L97.8087 60.26V62.09H108.759V58.55H99.0987C97.6387 58.55 96.6287 58.3 96.0687 57.8C95.5287 57.3 95.2587 56.33 95.2587 54.89V53.18C95.2587 51.74 95.5287 50.77 96.0687 50.27C96.6287 49.77 97.6387 49.52 99.0987 49.52H107.889C109.369 49.52 110.379 49.78 110.919 50.3C111.459 50.8 111.729 51.78 111.729 53.24L108.549 53.99V52.22H98.4087V55.55H108.069C109.529 55.55 110.539 55.8 111.099 56.3C111.659 56.8 111.939 57.77 111.939 59.21V61.34Z" fill="#F7F7F7"/>
<path d="M22.6735 65V65.6H23.7094L23.1939 64.7014L22.6735 65ZM18.6235 65L18.0975 65.2886L18.2683 65.6H18.6235V65ZM16.7635 61.61L17.2895 61.3214L17.1187 61.01H16.7635V61.61ZM6.95348 61.61V61.01H6.59273L6.42355 61.3286L6.95348 61.61ZM5.15348 65V65.6H5.51423L5.68341 65.2814L5.15348 65ZM1.55348 65L1.03129 64.7045L0.524533 65.6H1.55348V65ZM10.3135 49.52V48.92H9.9636L9.79129 49.2245L10.3135 49.52ZM13.7935 49.52L14.3139 49.2214L14.141 48.92H13.7935V49.52ZM15.2635 58.82V59.42H16.2593L15.7939 58.5396L15.2635 58.82ZM11.9335 52.52L12.4639 52.2396L11.9428 51.2537L11.4072 52.2318L11.9335 52.52ZM8.48348 58.82L7.95722 58.5318L7.47083 59.42H8.48348V58.82ZM22.6735 64.4H18.6235V65.6H22.6735V64.4ZM19.1495 64.7114L17.2895 61.3214L16.2375 61.8986L18.0975 65.2886L19.1495 64.7114ZM16.7635 61.01H6.95348V62.21H16.7635V61.01ZM6.42355 61.3286L4.62355 64.7186L5.68341 65.2814L7.48341 61.8914L6.42355 61.3286ZM5.15348 64.4H1.55348V65.6H5.15348V64.4ZM2.07566 65.2955L10.8357 49.8155L9.79129 49.2245L1.03129 64.7045L2.07566 65.2955ZM10.3135 50.12H13.7935V48.92H10.3135V50.12ZM13.273 49.8186L22.153 65.2986L23.1939 64.7014L14.3139 49.2214L13.273 49.8186ZM15.7939 58.5396L12.4639 52.2396L11.403 52.8004L14.733 59.1004L15.7939 58.5396ZM11.4072 52.2318L7.95722 58.5318L9.00973 59.1082L12.4597 52.8082L11.4072 52.2318ZM8.48348 59.42H15.2635V58.22H8.48348V59.42ZM43.028 65V65.6H44.707L43.4083 64.5359L43.028 65ZM37.868 65L37.4576 65.4377L37.6307 65.6H37.868V65ZM31.628 59.15L32.0384 58.7123L31.8653 58.55H31.628V59.15ZM28.208 59.15V58.55H27.608V59.15H28.208ZM28.208 65V65.6H28.808V65H28.208ZM24.668 65H24.068V65.6H24.668V65ZM24.668 49.52V48.92H24.068V49.52H24.668ZM39.608 58.94L39.4356 58.3653L39.4333 58.366L39.608 58.94ZM35.888 59.15V58.55H34.209L35.5077 59.6141L35.888 59.15ZM37.478 52.4L37.1559 52.9062L37.1753 52.9186L37.1957 52.9294L37.478 52.4ZM28.208 52.19V51.59H27.608V52.19H28.208ZM28.208 56.51H27.608V57.11H28.208V56.51ZM37.478 56.3L37.1957 55.7706L37.1753 55.7814L37.1559 55.7938L37.478 56.3ZM43.028 64.4H37.868V65.6H43.028V64.4ZM38.2784 64.5623L32.0384 58.7123L31.2176 59.5877L37.4576 65.4377L38.2784 64.5623ZM31.628 58.55H28.208V59.75H31.628V58.55ZM27.608 59.15V65H28.808V59.15H27.608ZM28.208 64.4H24.668V65.6H28.208V64.4ZM25.268 65V49.52H24.068V65H25.268ZM24.668 50.12H37.928V48.92H24.668V50.12ZM37.928 50.12C39.0155 50.12 39.7192 50.3563 40.1462 50.7244C40.5563 51.0779 40.808 51.6376 40.808 52.52H42.008C42.008 51.4024 41.6797 50.4621 40.9298 49.8156C40.1968 49.1837 39.1605 48.92 37.928 48.92V50.12ZM40.808 52.52V56.15H42.008V52.52H40.808ZM40.808 56.15C40.808 56.8244 40.6727 57.3079 40.4538 57.6472C40.2414 57.9764 39.9181 58.2206 39.4356 58.3653L39.7804 59.5147C40.4979 59.2994 41.0746 58.8986 41.4622 58.2978C41.8433 57.7071 42.008 56.9756 42.008 56.15H40.808ZM39.4333 58.366C39.2809 58.4124 38.9234 58.4632 38.2992 58.4985C37.6952 58.5326 36.8928 58.55 35.888 58.55V59.75C36.9033 59.75 37.7308 59.7324 38.3668 59.6965C38.9826 59.6618 39.4751 59.6076 39.7827 59.514L39.4333 58.366ZM35.5077 59.6141L42.6477 65.4641L43.4083 64.5359L36.2683 58.6859L35.5077 59.6141ZM38.528 55.28V53.42H37.328V55.28H38.528ZM38.528 53.42C38.528 52.8068 38.3478 52.1839 37.7604 51.8706L37.1957 52.9294C37.2083 52.9361 37.328 52.9932 37.328 53.42H38.528ZM37.8001 51.8938C37.4231 51.6539 36.8782 51.59 36.308 51.59V52.79C36.8579 52.79 37.0929 52.8661 37.1559 52.9062L37.8001 51.8938ZM36.308 51.59H28.208V52.79H36.308V51.59ZM27.608 52.19V56.51H28.808V52.19H27.608ZM28.208 57.11H36.308V55.91H28.208V57.11ZM36.308 57.11C36.8782 57.11 37.4231 57.0461 37.8001 56.8062L37.1559 55.7938C37.0929 55.8339 36.8579 55.91 36.308 55.91V57.11ZM37.7604 56.8294C38.3478 56.5161 38.528 55.8932 38.528 55.28H37.328C37.328 55.7068 37.2083 55.7639 37.1957 55.7706L37.7604 56.8294ZM49.3207 65V65.6H49.9207V65H49.3207ZM45.7207 65H45.1207V65.6H45.7207V65ZM45.7207 49.52V48.92H45.1207V49.52H45.7207ZM49.3207 49.52H49.9207V48.92H49.3207V49.52ZM49.3207 64.4H45.7207V65.6H49.3207V64.4ZM46.3207 65V49.52H45.1207V65H46.3207ZM45.7207 50.12H49.3207V48.92H45.7207V50.12ZM48.7207 49.52V65H49.9207V49.52H48.7207ZM70.1944 64.25L69.7948 63.8024L70.1944 64.25ZM54.4744 64.16L54.0269 64.5596L54.0269 64.5596L54.4744 64.16ZM53.7244 60.92L53.6025 60.3325L53.1244 60.4317V60.92H53.7244ZM56.9044 60.26H57.5044V59.5227L56.7825 59.6725L56.9044 60.26ZM56.9044 62.09H56.3044V62.69H56.9044V62.09ZM67.8544 62.09V62.69H68.4544V62.09H67.8544ZM67.8544 58.55H68.4544V57.95H67.8544V58.55ZM55.1644 57.8L54.7567 58.2403L54.7648 58.2476L55.1644 57.8ZM55.1644 50.27L54.7647 49.8224L54.7568 49.8297L55.1644 50.27ZM70.0144 50.3L69.5982 50.7323L69.6068 50.7403L70.0144 50.3ZM70.8244 53.24L70.9621 53.824L71.4244 53.715V53.24H70.8244ZM67.6444 53.99H67.0444V54.748L67.7821 54.574L67.6444 53.99ZM67.6444 52.22H68.2444V51.62H67.6444V52.22ZM57.5044 52.22V51.62H56.9044V52.22H57.5044ZM57.5044 55.55H56.9044V56.15H57.5044V55.55ZM70.4344 61.34C70.4344 62.7505 70.1504 63.485 69.7948 63.8024L70.594 64.6976C71.3584 64.015 71.6344 62.8095 71.6344 61.34H70.4344ZM69.7948 63.8024C69.4099 64.1461 68.5976 64.4 67.1644 64.4V65.6C68.6512 65.6 69.8589 65.3539 70.594 64.6976L69.7948 63.8024ZM67.1644 64.4H57.5944V65.6H67.1644V64.4ZM57.5944 64.4C56.835 64.4 56.2369 64.3322 55.7854 64.2106C55.3314 64.0884 55.0674 63.9233 54.922 63.7604L54.0269 64.5596C54.3814 64.9567 54.8874 65.2116 55.4734 65.3694C56.062 65.5278 56.7738 65.6 57.5944 65.6V64.4ZM54.922 63.7604C54.7636 63.583 54.6088 63.2799 54.4965 62.7947C54.3852 62.3138 54.3244 61.6927 54.3244 60.92H53.1244C53.1244 61.7473 53.1887 62.4662 53.3274 63.0653C53.4651 63.6601 53.6852 64.177 54.0269 64.5596L54.922 63.7604ZM53.8463 61.5075L57.0263 60.8475L56.7825 59.6725L53.6025 60.3325L53.8463 61.5075ZM56.3044 60.26V62.09H57.5044V60.26H56.3044ZM56.9044 62.69H67.8544V61.49H56.9044V62.69ZM68.4544 62.09V58.55H67.2544V62.09H68.4544ZM67.8544 57.95H58.1944V59.15H67.8544V57.95ZM58.1944 57.95C56.7612 57.95 55.9489 57.6961 55.564 57.3524L54.7648 58.2476C55.4999 58.9039 56.7076 59.15 58.1944 59.15V57.95ZM55.5721 57.3597C55.2299 57.043 54.9544 56.3047 54.9544 54.89H53.7544C53.7544 56.3553 54.0189 57.557 54.7568 58.2403L55.5721 57.3597ZM54.9544 54.89V53.18H53.7544V54.89H54.9544ZM54.9544 53.18C54.9544 51.7653 55.2299 51.027 55.5721 50.7103L54.7568 49.8297C54.0189 50.513 53.7544 51.7147 53.7544 53.18H54.9544ZM55.564 50.7176C55.9489 50.3739 56.7612 50.12 58.1944 50.12V48.92C56.7076 48.92 55.4999 49.1661 54.7648 49.8224L55.564 50.7176ZM58.1944 50.12H66.9844V48.92H58.1944V50.12ZM66.9844 50.12C68.4406 50.12 69.2381 50.3854 69.5982 50.7322L70.4306 49.8678C69.7107 49.1746 68.4883 48.92 66.9844 48.92V50.12ZM69.6068 50.7403C69.9478 51.056 70.2244 51.8022 70.2244 53.24H71.4244C71.4244 51.7578 71.1611 50.544 70.4221 49.8597L69.6068 50.7403ZM70.6867 52.656L67.5067 53.406L67.7821 54.574L70.9621 53.824L70.6867 52.656ZM68.2444 53.99V52.22H67.0444V53.99H68.2444ZM67.6444 51.62H57.5044V52.82H67.6444V51.62ZM56.9044 52.22V55.55H58.1044V52.22H56.9044ZM57.5044 56.15H67.1644V54.95H57.5044V56.15ZM67.1644 56.15C68.5976 56.15 69.4099 56.4039 69.7948 56.7476L70.594 55.8524C69.8589 55.1961 68.6512 54.95 67.1644 54.95V56.15ZM69.7948 56.7476C70.1504 57.065 70.4344 57.7995 70.4344 59.21H71.6344C71.6344 57.7405 71.3584 56.535 70.594 55.8524L69.7948 56.7476ZM70.4344 59.21V61.34H71.6344V59.21H70.4344ZM91.4822 65V65.6H92.0822V65H91.4822ZM75.4922 65H74.8922V65.6H75.4922V65ZM75.4922 49.52V48.92H74.8922V49.52H75.4922ZM91.3322 49.52H91.9322V48.92H91.3322V49.52ZM91.3322 52.16V52.76H91.9322V52.16H91.3322ZM79.0922 52.16V51.56H78.4922V52.16H79.0922ZM79.0922 55.61H78.4922V56.21H79.0922V55.61ZM86.2322 55.61H86.8322V55.01H86.2322V55.61ZM86.2322 58.25V58.85H86.8322V58.25H86.2322ZM79.0922 58.25V57.65H78.4922V58.25H79.0922ZM79.0922 62.09H78.4922V62.69H79.0922V62.09ZM91.4822 62.09H92.0822V61.49H91.4822V62.09ZM91.4822 64.4H75.4922V65.6H91.4822V64.4ZM76.0922 65V49.52H74.8922V65H76.0922ZM75.4922 50.12H91.3322V48.92H75.4922V50.12ZM90.7322 49.52V52.16H91.9322V49.52H90.7322ZM91.3322 51.56H79.0922V52.76H91.3322V51.56ZM78.4922 52.16V55.61H79.6922V52.16H78.4922ZM79.0922 56.21H86.2322V55.01H79.0922V56.21ZM85.6322 55.61V58.25H86.8322V55.61H85.6322ZM86.2322 57.65H79.0922V58.85H86.2322V57.65ZM78.4922 58.25V62.09H79.6922V58.25H78.4922ZM79.0922 62.69H91.4822V61.49H79.0922V62.69ZM90.8822 62.09V65H92.0822V62.09H90.8822ZM111.099 64.25L110.699 63.8024L111.099 64.25ZM95.3787 64.16L94.9311 64.5596L94.9311 64.5596L95.3787 64.16ZM94.6287 60.92L94.5068 60.3325L94.0287 60.4317V60.92H94.6287ZM97.8087 60.26H98.4087V59.5227L97.6868 59.6725L97.8087 60.26ZM97.8087 62.09H97.2087V62.69H97.8087V62.09ZM108.759 62.09V62.69H109.359V62.09H108.759ZM108.759 58.55H109.359V57.95H108.759V58.55ZM96.0687 57.8L95.661 58.2403L95.6691 58.2476L96.0687 57.8ZM96.0687 50.27L95.669 49.8224L95.6611 49.8297L96.0687 50.27ZM110.919 50.3L110.502 50.7323L110.511 50.7403L110.919 50.3ZM111.729 53.24L111.866 53.824L112.329 53.715V53.24H111.729ZM108.549 53.99H107.949V54.748L108.686 54.574L108.549 53.99ZM108.549 52.22H109.149V51.62H108.549V52.22ZM98.4087 52.22V51.62H97.8087V52.22H98.4087ZM98.4087 55.55H97.8087V56.15H98.4087V55.55ZM111.339 61.34C111.339 62.7505 111.055 63.485 110.699 63.8024L111.498 64.6976C112.263 64.015 112.539 62.8095 112.539 61.34H111.339ZM110.699 63.8024C110.314 64.1461 109.502 64.4 108.069 64.4V65.6C109.555 65.6 110.763 65.3539 111.498 64.6976L110.699 63.8024ZM108.069 64.4H98.4987V65.6H108.069V64.4ZM98.4987 64.4C97.7393 64.4 97.1412 64.3322 96.6897 64.2106C96.2357 64.0884 95.9717 63.9233 95.8263 63.7604L94.9311 64.5596C95.2857 64.9567 95.7917 65.2116 96.3777 65.3694C96.9662 65.5278 97.6781 65.6 98.4987 65.6V64.4ZM95.8263 63.7604C95.6679 63.583 95.5131 63.2799 95.4008 62.7947C95.2894 62.3138 95.2287 61.6927 95.2287 60.92H94.0287C94.0287 61.7473 94.093 62.4662 94.2317 63.0653C94.3694 63.6601 94.5895 64.177 94.9311 64.5596L95.8263 63.7604ZM94.7506 61.5075L97.9306 60.8475L97.6868 59.6725L94.5068 60.3325L94.7506 61.5075ZM97.2087 60.26V62.09H98.4087V60.26H97.2087ZM97.8087 62.69H108.759V61.49H97.8087V62.69ZM109.359 62.09V58.55H108.159V62.09H109.359ZM108.759 57.95H99.0987V59.15H108.759V57.95ZM99.0987 57.95C97.6655 57.95 96.8532 57.6961 96.4683 57.3524L95.6691 58.2476C96.4042 58.9039 97.6119 59.15 99.0987 59.15V57.95ZM96.4764 57.3597C96.1342 57.043 95.8587 56.3047 95.8587 54.89H94.6587C94.6587 56.3553 94.9232 57.557 95.6611 58.2403L96.4764 57.3597ZM95.8587 54.89V53.18H94.6587V54.89H95.8587ZM95.8587 53.18C95.8587 51.7653 96.1342 51.027 96.4764 50.7103L95.6611 49.8297C94.9232 50.513 94.6587 51.7147 94.6587 53.18H95.8587ZM96.4683 50.7176C96.8532 50.3739 97.6655 50.12 99.0987 50.12V48.92C97.6119 48.92 96.4042 49.1661 95.6691 49.8224L96.4683 50.7176ZM99.0987 50.12H107.889V48.92H99.0987V50.12ZM107.889 50.12C109.345 50.12 110.142 50.3854 110.503 50.7322L111.335 49.8678C110.615 49.1746 109.393 48.92 107.889 48.92V50.12ZM110.511 50.7403C110.852 51.056 111.129 51.8022 111.129 53.24H112.329C112.329 51.7578 112.065 50.544 111.326 49.8597L110.511 50.7403ZM111.591 52.656L108.411 53.406L108.686 54.574L111.866 53.824L111.591 52.656ZM109.149 53.99V52.22H107.949V53.99H109.149ZM108.549 51.62H98.4087V52.82H108.549V51.62ZM97.8087 52.22V55.55H99.0087V52.22H97.8087ZM98.4087 56.15H108.069V54.95H98.4087V56.15ZM108.069 56.15C109.502 56.15 110.314 56.4039 110.699 56.7476L111.498 55.8524C110.763 55.1961 109.555 54.95 108.069 54.95V56.15ZM110.699 56.7476C111.055 57.065 111.339 57.7995 111.339 59.21H112.539C112.539 57.7405 112.263 56.535 111.498 55.8524L110.699 56.7476ZM111.339 59.21V61.34H112.539V59.21H111.339Z" fill="#A480F2" mask="url(#path-1-outside-1_259_40)"/>
<path d="M57.5 1C56.8958 1.875 53.15 5.9 43 15C52.8453 16.4301 55.8783 19.6324 57.5 29C58.9003 19.2723 61.5449 15.6767 72 15L57.5 1Z" fill="white" stroke="#A480F2" stroke-width="0.8"/>
<path d="M74.6018 30.4606C72.4566 29.9303 69.5447 29.3728 66.708 29.2731L66.9772 28.1676C70.0548 28.2003 74.1304 28.6852 77.4682 29.4612C79.16 29.8546 80.6428 30.4021 81.6488 31.0886C82.6558 31.7756 83.1189 32.5491 82.9623 33.4111C82.8221 34.1498 82.1811 34.8706 80.9479 35.5184C79.7226 36.1619 77.9706 36.7014 75.7315 37.104C63.5529 39.2315 50.4773 39.0612 38.2856 36.981C35.9398 36.5164 34.0227 35.8989 32.7427 35.1712C31.4422 34.4317 30.9176 33.6542 31.0525 32.8885C31.2284 32 31.9499 31.1977 33.1114 30.5342C34.2679 29.8736 35.815 29.3785 37.541 29.0878L37.541 29.0879L37.5465 29.0868C40.8047 28.4752 44.8802 28.289 48.0781 28.2818C48.0367 28.4939 47.9976 28.7226 47.958 28.954C47.9362 29.0817 47.9142 29.2102 47.8916 29.3372C45.6241 29.3406 42.8479 29.5459 40.8147 29.8653L40.8147 29.8652L40.8071 29.8666C39.6633 30.0765 37.9293 30.4603 36.4451 30.955C35.7044 31.2018 35.0127 31.4806 34.4852 31.7854C34.2214 31.9378 33.9885 32.1025 33.8095 32.2808C33.6319 32.4577 33.4892 32.6661 33.4425 32.9067L33.4425 32.9067L33.4414 32.9127C33.3946 33.1839 33.485 33.4292 33.6422 33.6339C33.795 33.833 34.0192 34.0068 34.2786 34.161C34.7983 34.4702 35.5346 34.7447 36.3646 34.9899C38.0302 35.482 40.1585 35.8796 41.9019 36.1871L41.9019 36.1871L41.9053 36.1877C45.3026 36.7478 50.8102 37.1447 56.9101 37.2904L56.91 37.2904L56.9144 37.2904C61.8902 37.3373 67.2943 37.1222 71.14 36.5078L71.1419 36.5075C73.1055 36.1812 75.3706 35.7697 77.1836 35.258C78.0886 35.0025 78.896 34.7181 79.5008 34.3996C79.8033 34.2404 80.0664 34.0669 80.2674 33.8758C80.4677 33.6853 80.6229 33.4611 80.6749 33.2007L80.675 33.2007L80.6764 33.1926C80.7159 32.9616 80.6152 32.7627 80.4897 32.6141C80.3644 32.4656 80.1865 32.3322 79.9873 32.2116C79.5867 31.969 79.0285 31.7363 78.4166 31.5216C77.1885 31.0909 75.6768 30.7102 74.6018 30.4606Z" fill="white" stroke="#A480F2" stroke-width="0.6"/>
</svg>
