<svg width="38" height="34" viewBox="0 0 38 34" fill="none" xmlns="http://www.w3.org/2000/svg">
<g id="Logo">
<g clip-path="url(#clip0_557_96)">
<path id="Vector 21" d="M22 1L12 11C19.5 11.625 20.8816 14.3088 22 21C22.9657 14.0517 24.5 11.625 32 11L27 6L24.5 3.5L22 1Z" fill="white" stroke="#A480F2" stroke-width="0.4"/>
<path id="Vector" d="M6.64327 23.1115C6.74104 22.6018 7.16012 22.1402 7.85065 21.7588C8.45238 21.4265 9.23521 21.1694 10.1148 21.004L10.4976 20.9387L10.5011 20.9382C12.4483 20.6022 14.8875 20.5224 16.8078 20.5406C16.7744 20.7221 16.743 20.9226 16.7104 21.1167C15.5272 21.1053 14.1191 21.1791 12.9729 21.3126L12.4769 21.376L12.4712 21.3765L11.8975 21.4813C11.2731 21.6035 10.5207 21.7777 9.85282 21.9889C9.40864 22.1293 8.99286 22.2893 8.67567 22.4665C8.51714 22.5551 8.37587 22.6521 8.26713 22.7583C8.18649 22.8372 8.11593 22.9279 8.07416 23.0315L8.04291 23.1401L8.04207 23.144C8.01427 23.3133 8.0743 23.4647 8.17181 23.5887C8.26683 23.7094 8.40465 23.8152 8.56236 23.9085C8.8786 24.0955 9.32482 24.2632 9.82607 24.414C10.5808 24.641 11.4916 24.8385 12.3432 25.005L13.1667 25.1611L13.1689 25.1611C14.9615 25.472 17.7252 25.7213 20.847 25.8658L22.2054 25.921L22.2085 25.9214C25.0152 25.981 28.0473 25.9068 30.3191 25.6213L30.7631 25.5619L30.7644 25.5614C31.9432 25.383 33.3038 25.1567 34.3918 24.8675C34.9348 24.7231 35.4209 24.5601 35.7846 24.3755C35.9662 24.2832 36.1256 24.1814 36.2475 24.0678C36.3386 23.9829 36.415 23.8847 36.4608 23.7731L36.4959 23.6566L36.4976 23.6509C36.5213 23.504 36.4535 23.3791 36.3761 23.2896C36.2982 23.1995 36.1889 23.1186 36.068 23.0458C35.8241 22.899 35.4856 22.7571 35.1157 22.6259C34.5585 22.4283 33.9056 22.2464 33.3403 22.1023L32.8106 21.9721C31.5206 21.6447 29.7721 21.2988 28.0696 21.2178L28.213 20.612C29.8238 20.6495 31.8877 20.8912 33.7195 21.2713L34.5136 21.4478C35.5332 21.6921 36.4273 22.0255 37.0355 22.4366C37.6083 22.8238 37.885 23.2473 37.8468 23.7048L37.8355 23.7949C37.7593 24.2165 37.3888 24.6327 36.6529 25.0054C35.9234 25.3749 34.8756 25.6797 33.5324 25.901L33.532 25.9019C26.6799 26.9962 19.3387 26.8926 12.3933 25.7911L11.0092 25.5571C9.5967 25.2662 8.44148 24.8889 7.66844 24.4514C6.92722 24.0319 6.6099 23.6029 6.63403 23.1929L6.64327 23.1115Z" fill="white" stroke="#A480F2" stroke-width="0.4"/>
</g>
</g>
<defs>
<clipPath id="clip0_557_96">
<rect width="38" height="34" rx="8" fill="white"/>
</clipPath>
</defs>
</svg>
